<svg xmlns="http://www.w3.org/2000/svg" xmlns:xlink="http://www.w3.org/1999/xlink" width="194.904" height="196.501" viewBox="0 0 194.904 196.501">
  <defs>
    <linearGradient id="linear-gradient" x1="0.5" x2="0.5" y2="1" gradientUnits="objectBoundingBox">
      <stop offset="0" stop-color="#f17e45"/>
      <stop offset="0.17" stop-color="#ec7846"/>
      <stop offset="0.279" stop-color="#e77346"/>
      <stop offset="0.416" stop-color="#e47046"/>
      <stop offset="0.513" stop-color="#dd6a46"/>
      <stop offset="0.602" stop-color="#c85646"/>
      <stop offset="0.703" stop-color="#ba4946"/>
      <stop offset="0.803" stop-color="#b74646"/>
      <stop offset="0.909" stop-color="#b14046"/>
      <stop offset="0.968" stop-color="#a03046"/>
      <stop offset="1" stop-color="#6e0247"/>
    </linearGradient>
  </defs>
  <g id="pagethreeorange" transform="translate(665 -21.351)">
    <g id="pagethree" transform="translate(133 45)">
      <g id="pagethree-2" data-name="pagethree" transform="translate(-21 -27)">
        <g id="Icon_feather-share-2" data-name="Icon feather-share-2" transform="translate(-749.999 39.662)">
          <path id="Path_15" data-name="Path 15" d="M31.5,7.5A4.5,4.5,0,1,1,27,3,4.5,4.5,0,0,1,31.5,7.5Z" transform="translate(69.396)" stroke="#880e4f" stroke-linecap="round" stroke-linejoin="round" stroke-width="1"/>
          <path id="Path_16" data-name="Path 16" d="M13.5,18A4.5,4.5,0,1,1,9,13.5,4.5,4.5,0,0,1,13.5,18Z" transform="translate(0 37.512)" stroke="#880e4f" stroke-linecap="round" stroke-linejoin="round" stroke-width="1"/>
          <path id="Path_17" data-name="Path 17" d="M31.5,28.5A4.5,4.5,0,1,1,27,24,4.5,4.5,0,0,1,31.5,28.5Z" transform="translate(68.396 83.023)" stroke="#880e4f" stroke-linecap="round" stroke-linejoin="round" stroke-width="1"/>
          <line id="Line_18" data-name="Line 18" x1="16" y1="30" transform="translate(78.499 76.838)" fill="none" stroke="#880e4f" stroke-width="1"/>
        </g>
        <g id="pagethree-3" data-name="pagethree" transform="translate(-235 172)">
          <path id="Icon_material-phone-android" data-name="Icon material-phone-android" d="M30.74,1.5h-16.9C10.331,1.5,7.5,4.661,7.5,8.577V46.321c0,3.916,2.831,7.077,6.338,7.077h16.9c3.507,0,6.338-3.161,6.338-7.077V8.577C37.078,4.661,34.247,1.5,30.74,1.5ZM26.514,48.68H18.063V46.321h8.451ZM33.38,41.6H11.2V8.577H33.38Z" transform="translate(-549 -67.898)" fill="none" stroke="#880e4f" stroke-linejoin="round" stroke-width="1"/>
        </g>
        <g id="Icon_feather-instagram" data-name="Icon feather-instagram" transform="translate(-653.5 158.602)">
          <path id="Path_20" data-name="Path 20" d="M10.5,3h15A7.5,7.5,0,0,1,33,10.5v15A7.5,7.5,0,0,1,25.5,33h-15A7.5,7.5,0,0,1,3,25.5v-15A7.5,7.5,0,0,1,10.5,3Z" fill="none" stroke="#880e4f" stroke-linecap="round" stroke-linejoin="round" stroke-width="1"/>
          <path id="Path_21" data-name="Path 21" d="M24,17.055A6,6,0,1,1,18.945,12,6,6,0,0,1,24,17.055Z" fill="none" stroke="#880e4f" stroke-linecap="round" stroke-linejoin="round" stroke-width="1"/>
          <path id="Path_22" data-name="Path 22" d="M26.25,9.75h0" fill="none" stroke="#880e4f" stroke-linecap="round" stroke-linejoin="round" stroke-width="1"/>
        </g>
        <path id="Icon_awesome-facebook" data-name="Icon awesome-facebook" d="M35.438,18A17.438,17.438,0,1,0,15.275,35.227V23.041h-4.43V18h4.43V14.158c0-4.37,2.6-6.784,6.586-6.784a26.836,26.836,0,0,1,3.9.34V12h-2.2a2.52,2.52,0,0,0-2.841,2.723V18h4.836l-.773,5.041H20.725V35.227A17.444,17.444,0,0,0,35.438,18Z" transform="translate(-624.171 122.157)" fill="none" stroke="#880e4f" stroke-linejoin="round" stroke-width="1"/>
        <path id="Icon_awesome-whatsapp" data-name="Icon awesome-whatsapp" d="M26.782,6.827A15.614,15.614,0,0,0,2.215,25.664L0,33.75l8.276-2.173a15.562,15.562,0,0,0,7.46,1.9h.007A15.76,15.76,0,0,0,31.5,17.866,15.671,15.671,0,0,0,26.782,6.827ZM15.743,30.846a12.951,12.951,0,0,1-6.609-1.807l-.471-.281L3.755,30.045l1.308-4.788-.309-.492a13,13,0,1,1,24.11-6.9,13.119,13.119,0,0,1-13.12,12.98Zm7.116-9.717c-.387-.2-2.306-1.139-2.665-1.266s-.619-.2-.879.2-1.005,1.266-1.237,1.533-.457.3-.844.1a10.617,10.617,0,0,1-5.309-4.641c-.4-.689.4-.64,1.146-2.13a.723.723,0,0,0-.035-.682c-.1-.2-.879-2.116-1.2-2.9-.316-.759-.64-.654-.879-.668s-.485-.014-.745-.014a1.445,1.445,0,0,0-1.041.485A4.383,4.383,0,0,0,7.8,14.4a7.641,7.641,0,0,0,1.589,4.036c.2.26,2.749,4.2,6.666,5.892,2.475,1.069,3.445,1.16,4.683.977a4,4,0,0,0,2.63-1.856,3.262,3.262,0,0,0,.225-1.856C23.505,21.417,23.245,21.319,22.859,21.129Z" transform="translate(-614.096 79.051)" fill="none" stroke="#880e4f" stroke-linejoin="round" stroke-width="1"/>
        <g id="Icon_feather-mail" data-name="Icon feather-mail" transform="translate(-626.939 41.051)">
          <path id="Path_23" data-name="Path 23" d="M6,6H30a3.009,3.009,0,0,1,3,3V27a3.009,3.009,0,0,1-3,3H6a3.009,3.009,0,0,1-3-3V9A3.009,3.009,0,0,1,6,6Z" fill="none" stroke="#880e4f" stroke-linecap="round" stroke-linejoin="round" stroke-width="1"/>
          <path id="Path_24" data-name="Path 24" d="M33,9,18,19.5,3,9" fill="none" stroke="#880e4f" stroke-linecap="round" stroke-linejoin="round" stroke-width="1"/>
        </g>
        <path id="Icon_awesome-pinterest-p" data-name="Icon awesome-pinterest-p" d="M14.344.457C7.13.457,0,5.266,0,13.05,0,18,2.784,20.813,4.472,20.813c.7,0,1.1-1.941,1.1-2.489,0-.654-1.666-2.046-1.666-4.767A9.5,9.5,0,0,1,13.774,3.9c4.788,0,8.332,2.721,8.332,7.72,0,3.734-1.5,10.737-6.349,10.737a3.122,3.122,0,0,1-3.248-3.08c0-2.658,1.856-5.231,1.856-7.973,0-4.655-6.6-3.811-6.6,1.814a8.26,8.26,0,0,0,.675,3.565c-.97,4.177-2.953,10.4-2.953,14.7,0,1.329.19,2.637.316,3.966.239.267.12.239.485.105C9.83,30.6,9.7,29.651,11.306,23.3c.865,1.645,3.1,2.531,4.873,2.531C23.646,25.833,27,18.555,27,12,27,5.013,20.967.457,14.344.457Z" transform="translate(-648.732 18.047)" fill="none" stroke="#880e4f" stroke-linejoin="round" stroke-width="1"/>
        <path id="Icon_zocial-gmail" data-name="Icon zocial-gmail" d="M-3.333,33.732V1.44h6.66l.324.288h29.7l.324-.288h6.263v32.4H33.782v-.253H3v.145H-3.333ZM3,28.98v2.881h30.78V29.2l-12.42-9.324-2.844,2.34-3.1-2.52Zm0-2.16,11.052-8.244L3,9.5ZM5.991,3.744,18.519,14.472,31.011,3.744H5.991Zm16.74,15.012,11.051,8.28V9.612Z" transform="translate(-700.371 2.411)" fill="none" stroke="#880e4f" stroke-linejoin="round" stroke-width="1"/>
        <path id="Icon_material-computer" data-name="Icon material-computer" d="M30,27a3,3,0,0,0,2.985-3L33,9a3.009,3.009,0,0,0-3-3H6A3.009,3.009,0,0,0,3,9V24a3.009,3.009,0,0,0,3,3H0v3H36V27ZM6,9H30V24H6Z" transform="translate(-745.5 13.602)" fill="none" stroke="#880e4f" stroke-linejoin="round" stroke-width="1"/>
        <path id="Icon_awesome-user-friends" data-name="Icon awesome-user-friends" d="M13.5,18a7.875,7.875,0,1,0-7.875-7.875A7.871,7.871,0,0,0,13.5,18Zm5.4,2.25h-.584a10.873,10.873,0,0,1-9.633,0H8.1A8.1,8.1,0,0,0,0,28.35v2.025A3.376,3.376,0,0,0,3.375,33.75h20.25A3.376,3.376,0,0,0,27,30.375V28.35A8.1,8.1,0,0,0,18.9,20.25ZM33.75,18A6.75,6.75,0,1,0,27,11.25,6.752,6.752,0,0,0,33.75,18Zm3.375,2.25h-.267a8.867,8.867,0,0,1-6.216,0h-.267a7.81,7.81,0,0,0-3.916,1.083A10.29,10.29,0,0,1,29.25,28.35v2.7c0,.155-.035.3-.042.45H41.625A3.376,3.376,0,0,0,45,28.125a7.871,7.871,0,0,0-7.875-7.875Z" transform="translate(-701.4 165.602)" fill="none" stroke="#880e4f" stroke-linejoin="round" stroke-width="1"/>
        <path id="Icon_awesome-tablet-alt" data-name="Icon awesome-tablet-alt" d="M28.125,0H3.375A3.376,3.376,0,0,0,0,3.375v29.25A3.376,3.376,0,0,0,3.375,36h24.75A3.376,3.376,0,0,0,31.5,32.625V3.375A3.376,3.376,0,0,0,28.125,0ZM15.75,33.75A2.25,2.25,0,1,1,18,31.5,2.248,2.248,0,0,1,15.75,33.75Zm12.375-7.594a.846.846,0,0,1-.844.844H4.219a.846.846,0,0,1-.844-.844V4.219a.846.846,0,0,1,.844-.844H27.281a.846.846,0,0,1,.844.844Z" transform="translate(-745.75 157.602)" fill="none" stroke="#880e4f" stroke-linejoin="round" stroke-width="1"/>
        <line id="Line_16" data-name="Line 16" x2="36" y2="2" transform="translate(-736.5 95.5)" fill="none" stroke="#880e4f" stroke-width="1"/>
        <line id="Line_17" data-name="Line 17" y1="26" x2="14" transform="translate(-669.5 51.5)" fill="none" stroke="#880e4f" stroke-width="1"/>
      </g>
      <g id="Group_5" data-name="Group 5" transform="translate(-725 -1878.641)">
        <g id="logoappfront" transform="translate(3 1926)">
          <ellipse id="Ellipse_1" data-name="Ellipse 1" cx="21.5" cy="22" rx="21.5" ry="22" transform="translate(1 -0.359)" fill="url(#linear-gradient)"/>
          <text id="PlantInsta" transform="translate(3 23.641)" fill="#fff" font-size="8" font-family="ArialRoundedMTBold, Arial Rounded MT"><tspan x="0" y="0">PlantInsta</tspan></text>
        </g>
      </g>
    </g>
    <path id="Icon_feather-twitter" data-name="Icon feather-twitter" d="M34.5,4.5a16.35,16.35,0,0,1-4.71,2.3A6.72,6.72,0,0,0,18,11.295v1.5A15.99,15.99,0,0,1,4.5,6s-6,13.5,7.5,19.5a17.46,17.46,0,0,1-10.5,3c13.5,7.5,30,0,30-17.25A6.75,6.75,0,0,0,31.38,10,11.58,11.58,0,0,0,34.5,4.5Z" transform="translate(-664.5 71.118)" fill="none" stroke="#880e4f" stroke-linecap="round" stroke-linejoin="round" stroke-width="1"/>
  </g>
</svg>
