<svg xmlns="http://www.w3.org/2000/svg" width="34.115" height="34.118" viewBox="0 0 34.115 34.118">
  <path id="Icon_awesome-tree" data-name="Icon awesome-tree" d="M31.527,23.655,24.869,18h2.553a2.019,2.019,0,0,0,1.732-.816,1.118,1.118,0,0,0-.273-1.5L22.369,10h2.408a1.989,1.989,0,0,0,1.738-.851,1.14,1.14,0,0,0-.353-1.5L16.972.3a1.713,1.713,0,0,0-1.943,0L5.838,7.644a1.141,1.141,0,0,0-.353,1.5A1.991,1.991,0,0,0,7.224,10H9.632L3.12,15.681a1.119,1.119,0,0,0-.273,1.5A2.019,2.019,0,0,0,4.579,18H7.132L.474,23.655a1.125,1.125,0,0,0-.3,1.516A2.059,2.059,0,0,0,1.928,26H13.334v1.528l-2.524,3.025C10.366,31.217,11.011,32,12,32h8c.991,0,1.636-.782,1.193-1.447l-2.524-3.025V26H30.072a2.059,2.059,0,0,0,1.751-.828A1.125,1.125,0,0,0,31.527,23.655Z" transform="translate(1.057 1.119)" fill="#69dd91" stroke="#fff" stroke-width="2"/>
</svg>
